<svg xmlns="http://www.w3.org/2000/svg" id="canvas" viewBox="234.953 258.502 1050.474 265.186"><path d="M 302.32,269.29 C 301.47 270.00, 301.06 270.53, 300.00 273.37 C 298.93 276.21, 298.77 278.19, 297.01 283.49 C 295.26 288.79, 294.13 292.36, 291.23 299.88 C 288.33 307.41, 286.45 311.99, 282.52 321.12 C 278.59 330.25, 276.05 335.49, 271.57 345.54 C 267.08 355.60, 264.43 361.24, 260.10 371.38 C 255.77 381.51, 253.48 386.94, 249.92 396.22 C 246.35 405.50, 244.58 410.20, 242.28 417.76 C 239.98 425.32, 239.08 428.82, 238.42 434.02 C 237.76 439.21, 237.68 441.26, 238.97 443.74 C 240.27 446.22, 241.96 447.04, 244.89 446.42 C 247.82 445.79, 249.53 444.25, 253.62 440.62 C 257.71 436.99, 260.02 434.24, 265.35 428.25 C 270.67 422.27, 273.77 418.35, 280.26 410.69 C 286.75 403.03, 290.45 398.52, 297.78 389.94 C 305.12 381.35, 309.11 376.61, 316.93 367.77 C 324.74 358.92, 328.98 354.28, 336.86 345.70 C 344.75 337.12, 348.87 332.78, 356.35 324.88 C 363.83 316.97, 367.53 313.04, 374.27 306.18 C 381.00 299.31, 384.30 296.13, 390.03 290.56 C 395.77 284.98, 398.39 282.47, 402.94 278.30 C 407.50 274.13, 409.83 272.41, 412.79 269.70 C 415.74 267.00, 416.53 266.26, 417.71 264.75 C 418.90 263.24, 418.67 262.80, 418.72 262.16 C 418.78 261.53, 418.56 261.42, 417.98 261.55 C 417.40 261.69, 417.29 261.69, 415.81 262.85 C 414.33 264.00, 413.49 264.60, 410.59 267.35 C 407.69 270.10, 405.70 272.23, 401.32 276.60 C 396.95 280.98, 394.36 283.54, 388.71 289.23 C 383.07 294.91, 379.79 298.12, 373.10 305.04 C 366.42 311.97, 362.73 315.92, 355.27 323.86 C 347.81 331.79, 343.69 336.14, 335.81 344.73 C 327.92 353.32, 323.68 357.96, 315.83 366.80 C 307.99 375.63, 303.97 380.36, 296.57 388.89 C 289.17 397.43, 285.43 401.91, 278.82 409.45 C 272.21 416.99, 268.98 420.82, 263.52 426.58 C 258.06 432.33, 255.44 434.88, 251.52 438.22 C 247.61 441.56, 245.95 442.39, 243.93 443.28 C 241.91 444.17, 242.03 444.45, 241.43 442.65 C 240.83 440.86, 240.39 439.19, 240.94 434.32 C 241.48 429.45, 242.04 425.81, 244.15 418.31 C 246.26 410.81, 247.99 406.07, 251.47 396.81 C 254.95 387.55, 257.24 382.12, 261.56 372.00 C 265.88 361.88, 268.53 356.24, 273.07 346.22 C 277.61 336.20, 280.17 330.97, 284.26 321.89 C 288.34 312.80, 290.31 308.25, 293.49 300.80 C 296.67 293.35, 298.03 289.87, 300.15 284.65 C 302.27 279.43, 303.28 277.67, 304.11 274.70 C 304.93 271.74, 304.62 270.91, 304.26 269.83 C 303.91 268.75, 303.17 268.58, 302.32 269.29" style="stroke:#ffffff; fill:#ffffff;"/><path d="M 341.52,338.64 C 340.92 339.42, 340.60 340.18, 340.65 342.21 C 340.70 344.24, 340.75 345.68, 341.77 348.79 C 342.78 351.89, 343.86 353.87, 345.73 357.74 C 347.60 361.62, 348.88 363.90, 351.11 368.16 C 353.34 372.42, 354.58 374.76, 356.86 379.03 C 359.14 383.29, 360.17 385.54, 362.52 389.47 C 364.87 393.41, 365.99 395.35, 368.60 398.69 C 371.21 402.03, 372.42 403.70, 375.55 406.16 C 378.68 408.62, 380.46 409.73, 384.26 410.98 C 388.07 412.23, 390.23 412.65, 394.58 412.43 C 398.93 412.21, 401.26 411.67, 406.02 409.89 C 410.78 408.11, 413.35 406.72, 418.38 403.51 C 423.41 400.31, 426.19 398.19, 431.18 393.87 C 436.16 389.55, 438.82 386.82, 443.31 381.91 C 447.79 377.00, 450.04 374.15, 453.61 369.32 C 457.17 364.49, 458.86 362.03, 461.13 357.75 C 463.39 353.48, 464.37 351.46, 464.91 347.93 C 465.45 344.40, 465.25 342.49, 463.83 340.09 C 462.41 337.69, 460.90 336.41, 457.82 335.93 C 454.74 335.46, 452.56 335.96, 448.44 337.72 C 444.31 339.48, 441.83 340.97, 437.19 344.75 C 432.56 348.53, 429.83 351.30, 425.27 356.64 C 420.71 361.98, 418.22 365.30, 414.40 371.46 C 410.57 377.63, 408.56 381.27, 406.14 387.44 C 403.73 393.61, 402.88 396.85, 402.33 402.31 C 401.77 407.77, 401.93 410.44, 403.38 414.73 C 404.82 419.02, 406.18 421.16, 409.55 423.77 C 412.91 426.38, 415.41 427.13, 420.20 427.76 C 424.99 428.40, 427.80 428.16, 433.51 426.92 C 439.22 425.68, 442.43 424.47, 448.75 421.56 C 455.06 418.65, 458.54 416.58, 465.09 412.36 C 471.65 408.14, 475.19 405.47, 481.53 400.46 C 487.87 395.46, 491.15 392.40, 496.79 387.32 C 502.44 382.24, 505.22 379.44, 509.77 375.07 C 514.31 370.70, 516.50 368.72, 519.52 365.47 C 522.54 362.22, 524.00 360.63, 524.85 358.83 C 525.70 357.03, 524.92 356.06, 523.76 356.46 C 522.59 356.86, 521.10 357.92, 519.01 360.81 C 516.93 363.70, 515.74 366.23, 513.34 370.91 C 510.93 375.59, 509.28 378.89, 506.99 384.21 C 504.69 389.52, 503.34 392.60, 501.87 397.48 C 500.39 402.37, 499.73 404.66, 499.60 408.63 C 499.47 412.60, 499.69 414.56, 501.20 417.33 C 502.71 420.11, 504.22 421.39, 507.13 422.49 C 510.05 423.59, 512.03 423.63, 515.78 422.83 C 519.52 422.03, 521.65 420.96, 525.87 418.50 C 530.08 416.05, 532.39 414.27, 536.85 410.55 C 541.32 406.83, 543.82 404.42, 548.18 399.91 C 552.53 395.40, 554.86 392.70, 558.64 387.99 C 562.41 383.28, 564.17 380.67, 567.06 376.36 C 569.95 372.05, 571.36 369.85, 573.09 366.46 C 574.82 363.08, 575.34 361.37, 575.71 359.44 C 576.07 357.50, 575.40 356.85, 574.91 356.78 C 574.43 356.70, 573.62 357.42, 573.29 359.06 C 572.96 360.70, 572.50 362.38, 573.26 364.96 C 574.02 367.54, 574.94 369.48, 577.09 371.96 C 579.23 374.45, 580.83 375.70, 583.99 377.37 C 587.15 379.03, 588.97 379.65, 592.90 380.30 C 596.83 380.95, 599.10 380.97, 603.66 380.64 C 608.21 380.30, 610.84 379.81, 615.67 378.62 C 620.51 377.44, 623.08 376.49, 627.83 374.72 C 632.57 372.95, 635.22 371.70, 639.40 369.76 C 643.59 367.82, 646.21 366.72, 648.76 365.03 C 651.31 363.34, 652.00 361.95, 652.15 361.31 C 652.30 360.67, 651.27 360.34, 649.51 361.83 C 647.75 363.33, 646.34 365.22, 643.36 368.78 C 640.37 372.35, 638.02 375.16, 634.57 379.66 C 631.12 384.16, 628.91 386.93, 626.12 391.29 C 623.33 395.64, 621.86 397.76, 620.62 401.43 C 619.38 405.09, 619.09 406.93, 619.91 409.60 C 620.73 412.26, 621.96 413.65, 624.71 414.77 C 627.47 415.89, 629.53 415.84, 633.70 415.19 C 637.86 414.53, 640.29 413.57, 645.55 411.50 C 650.81 409.44, 653.92 407.95, 660.01 404.85 C 666.10 401.75, 669.58 399.76, 676.00 396.01 C 682.42 392.26, 685.93 389.99, 692.11 386.09 C 698.29 382.19, 701.56 379.92, 706.90 376.53 C 712.23 373.13, 715.21 371.37, 718.78 369.12 C 722.35 366.88, 723.75 366.04, 724.75 365.29 C 725.76 364.54, 724.99 364.17, 723.82 365.37 C 722.65 366.57, 721.46 368.12, 718.90 371.29 C 716.33 374.45, 714.30 377.13, 711.00 381.21 C 707.71 385.28, 705.43 387.94, 702.41 391.65 C 699.38 395.37, 697.33 397.04, 695.88 399.78 C 694.42 402.51, 694.33 403.99, 695.15 405.34 C 695.97 406.68, 697.25 407.30, 699.97 406.48 C 702.70 405.67, 704.47 404.00, 708.77 401.27 C 713.07 398.55, 715.93 396.38, 721.47 392.86 C 727.00 389.34, 730.46 387.06, 736.45 383.67 C 742.44 380.27, 745.93 378.35, 751.41 375.89 C 756.89 373.43, 759.79 372.39, 763.86 371.35 C 767.93 370.32, 769.60 370.39, 771.75 370.71 C 773.90 371.02, 774.15 371.29, 774.60 372.92 C 775.04 374.56, 774.64 375.84, 773.99 378.88 C 773.34 381.93, 772.51 384.19, 771.36 388.15 C 770.21 392.11, 769.15 394.63, 768.24 398.70 C 767.33 402.77, 766.43 405.03, 766.80 408.49 C 767.17 411.95, 768.20 413.67, 770.10 415.98 C 772.01 418.29, 773.95 419.20, 776.33 420.03 C 778.70 420.85, 780.76 420.57, 781.99 420.12 C 783.23 419.66, 783.27 418.64, 782.51 417.75 C 781.75 416.87, 779.98 416.64, 778.22 415.67 C 776.46 414.70, 775.06 414.44, 773.71 412.91 C 772.36 411.39, 771.66 410.69, 771.46 408.05 C 771.26 405.42, 771.83 403.45, 772.73 399.74 C 773.62 396.03, 774.73 393.52, 775.93 389.50 C 777.13 385.47, 778.34 383.22, 778.74 379.63 C 779.15 376.04, 779.21 374.04, 777.94 371.54 C 776.68 369.04, 775.42 367.79, 772.43 367.12 C 769.45 366.46, 767.46 366.98, 763.02 368.22 C 758.58 369.47, 755.83 370.74, 750.25 373.35 C 744.66 375.96, 741.19 377.91, 735.10 381.27 C 729.02 384.62, 725.48 386.81, 719.81 390.13 C 714.13 393.45, 711.05 395.39, 706.72 397.87 C 702.38 400.34, 700.21 401.09, 698.13 402.49 C 696.06 403.90, 696.04 404.92, 696.34 404.89 C 696.64 404.85, 697.78 404.46, 699.63 402.33 C 701.48 400.20, 702.66 397.90, 705.60 394.23 C 708.55 390.56, 710.95 388.00, 714.35 383.97 C 717.74 379.93, 720.14 377.54, 722.58 374.07 C 725.03 370.59, 726.24 368.78, 726.57 366.60 C 726.91 364.41, 726.16 363.22, 724.25 363.15 C 722.34 363.08, 720.79 364.02, 717.02 366.25 C 713.26 368.48, 710.68 370.75, 705.44 374.32 C 700.20 377.88, 696.96 380.16, 690.83 384.07 C 684.70 387.99, 681.18 390.23, 674.78 393.89 C 668.37 397.55, 664.87 399.48, 658.79 402.36 C 652.71 405.25, 649.52 406.57, 644.38 408.31 C 639.24 410.04, 636.75 410.53, 633.08 411.05 C 629.41 411.56, 627.99 411.34, 626.03 410.86 C 624.07 410.39, 623.63 410.30, 623.29 408.68 C 622.94 407.06, 623.13 405.83, 624.30 402.74 C 625.48 399.66, 626.49 397.38, 629.16 393.25 C 631.83 389.12, 634.14 386.42, 637.66 382.10 C 641.18 377.78, 643.73 375.22, 646.76 371.66 C 649.80 368.10, 651.75 366.63, 652.83 364.31 C 653.92 361.98, 653.44 360.71, 652.18 360.03 C 650.92 359.35, 649.43 359.65, 646.53 360.91 C 643.63 362.16, 641.68 364.20, 637.69 366.31 C 633.70 368.41, 631.15 369.68, 626.58 371.44 C 622.01 373.19, 619.47 374.05, 614.84 375.09 C 610.21 376.14, 607.65 376.51, 603.43 376.67 C 599.21 376.84, 597.10 376.68, 593.75 375.92 C 590.39 375.17, 588.95 374.48, 586.66 372.89 C 584.38 371.30, 583.65 370.05, 582.30 367.97 C 580.96 365.89, 580.86 364.47, 579.92 362.49 C 578.98 360.50, 578.65 359.33, 577.62 358.04 C 576.60 356.74, 575.89 356.01, 574.81 356.02 C 573.72 356.03, 573.25 356.34, 572.19 358.08 C 571.14 359.82, 571.11 361.41, 569.55 364.72 C 568.00 368.04, 567.04 370.36, 564.41 374.66 C 561.77 378.95, 560.04 381.56, 556.38 386.20 C 552.71 390.84, 550.39 393.50, 546.08 397.87 C 541.77 402.23, 539.23 404.57, 534.81 408.03 C 530.40 411.49, 528.01 413.07, 524.02 415.16 C 520.03 417.25, 517.95 417.82, 514.86 418.46 C 511.77 419.10, 510.58 418.98, 508.58 418.36 C 506.57 417.74, 505.88 417.29, 504.84 415.36 C 503.79 413.43, 503.29 412.11, 503.36 408.73 C 503.42 405.35, 503.78 403.08, 505.15 398.47 C 506.52 393.85, 507.82 390.76, 510.21 385.65 C 512.59 380.55, 514.49 377.40, 517.07 372.94 C 519.64 368.48, 521.47 366.46, 523.10 363.35 C 524.74 360.24, 525.33 358.68, 525.23 357.40 C 525.13 356.12, 524.22 355.77, 522.59 356.94 C 520.96 358.11, 520.00 359.98, 517.08 363.25 C 514.16 366.52, 512.35 368.80, 507.99 373.29 C 503.64 377.77, 500.85 380.57, 495.29 385.66 C 489.73 390.76, 486.47 393.80, 480.18 398.75 C 473.90 403.70, 470.36 406.32, 463.86 410.41 C 457.36 414.50, 453.88 416.48, 447.68 419.20 C 441.49 421.92, 438.31 422.95, 432.90 424.01 C 427.49 425.07, 424.90 425.07, 420.64 424.49 C 416.37 423.91, 414.45 423.26, 411.58 421.10 C 408.72 418.95, 407.61 417.43, 406.31 413.72 C 405.01 410.02, 404.65 407.64, 405.09 402.57 C 405.53 397.50, 406.22 394.32, 408.51 388.36 C 410.80 382.41, 412.77 378.78, 416.53 372.80 C 420.29 366.81, 422.79 363.53, 427.33 358.44 C 431.87 353.34, 434.69 350.73, 439.21 347.33 C 443.74 343.93, 446.33 342.86, 449.96 341.45 C 453.59 340.04, 455.21 340.19, 457.36 340.27 C 459.52 340.35, 459.99 340.44, 460.73 341.85 C 461.47 343.25, 461.56 344.42, 461.07 347.31 C 460.58 350.21, 460.22 352.24, 458.28 356.32 C 456.33 360.39, 454.73 362.92, 451.35 367.68 C 447.96 372.44, 445.73 375.30, 441.34 380.12 C 436.95 384.94, 434.30 387.62, 429.39 391.79 C 424.48 395.96, 421.70 397.98, 416.79 400.96 C 411.89 403.95, 409.35 405.17, 404.87 406.71 C 400.40 408.25, 398.30 408.56, 394.43 408.66 C 390.56 408.76, 388.82 408.33, 385.52 407.21 C 382.23 406.09, 380.76 405.24, 377.96 403.07 C 375.17 400.90, 374.01 399.46, 371.54 396.37 C 369.06 393.28, 367.90 391.43, 365.60 387.63 C 363.30 383.82, 362.25 381.59, 360.05 377.35 C 357.85 373.11, 356.62 370.71, 354.62 366.43 C 352.62 362.14, 351.49 359.79, 350.05 355.90 C 348.61 352.02, 348.33 349.93, 347.42 346.98 C 346.51 344.04, 346.23 342.91, 345.48 341.18 C 344.74 339.45, 344.47 338.84, 343.68 338.33 C 342.89 337.82, 342.13 337.87, 341.52 338.64" style="stroke:#ffffff; fill:#ffffff;"/><path d="M 966.92,308.72 C 965.96 309.47, 965.43 310.36, 964.14 313.21 C 962.84 316.06, 962.48 318.12, 960.45 322.96 C 958.42 327.81, 957.00 330.97, 953.99 337.44 C 950.98 343.92, 949.19 348.04, 945.40 355.32 C 941.61 362.60, 939.26 366.70, 935.04 373.84 C 930.82 380.97, 928.44 384.80, 924.30 391.01 C 920.17 397.21, 917.99 400.42, 914.37 404.85 C 910.75 409.28, 908.70 411.01, 906.22 413.16 C 903.74 415.31, 903.02 415.84, 901.98 415.62 C 900.94 415.40, 901.20 414.85, 901.00 412.06 C 900.80 409.26, 900.38 406.86, 901.00 401.65 C 901.61 396.44, 902.12 392.89, 904.07 386.00 C 906.02 379.11, 907.38 375.01, 910.75 367.21 C 914.11 359.41, 916.17 354.99, 920.88 346.98 C 925.60 338.98, 928.49 334.70, 934.32 327.18 C 940.14 319.66, 943.56 315.86, 950.00 309.38 C 956.44 302.91, 959.96 299.80, 966.51 294.81 C 973.05 289.81, 976.56 287.62, 982.72 284.39 C 988.89 281.17, 992.02 280.06, 997.31 278.70 C 1002.61 277.33, 1005.19 277.28, 1009.20 277.59 C 1013.20 277.90, 1014.86 278.66, 1017.34 280.23 C 1019.83 281.79, 1020.64 282.82, 1021.60 285.40 C 1022.56 287.98, 1022.85 289.57, 1022.16 293.14 C 1021.47 296.71, 1020.74 298.94, 1018.17 303.26 C 1015.60 307.59, 1013.66 310.02, 1009.32 314.78 C 1004.98 319.55, 1002.12 322.32, 996.47 327.09 C 990.82 331.86, 987.34 334.27, 981.08 338.63 C 974.82 343.00, 971.18 345.20, 965.18 348.91 C 959.18 352.62, 956.03 354.40, 951.09 357.18 C 946.16 359.96, 943.77 360.76, 940.49 362.80 C 937.22 364.83, 936.09 365.46, 934.70 367.36 C 933.32 369.25, 933.30 370.20, 933.57 372.27 C 933.84 374.34, 934.35 375.55, 936.05 377.69 C 937.76 379.84, 939.29 380.73, 942.10 383.01 C 944.91 385.30, 946.66 386.57, 950.10 389.12 C 953.55 391.67, 955.46 393.08, 959.31 395.76 C 963.16 398.43, 965.32 399.92, 969.35 402.49 C 973.38 405.05, 975.40 406.44, 979.45 408.57 C 983.51 410.69, 985.54 411.69, 989.62 413.11 C 993.69 414.54, 995.75 415.15, 999.85 415.70 C 1003.94 416.25, 1006.02 416.31, 1010.07 415.87 C 1014.13 415.43, 1016.19 414.93, 1020.12 413.50 C 1024.05 412.07, 1025.96 411.04, 1029.73 408.73 C 1033.50 406.42, 1035.38 404.94, 1038.98 401.97 C 1042.58 399.00, 1044.39 397.19, 1047.72 393.87 C 1051.06 390.54, 1052.66 388.67, 1055.66 385.34 C 1058.65 382.01, 1060.11 380.28, 1062.71 377.23 C 1065.31 374.18, 1066.65 372.69, 1068.65 370.10 C 1070.66 367.51, 1071.54 366.29, 1072.74 364.29 C 1073.95 362.29, 1074.45 361.63, 1074.68 360.08 C 1074.91 358.54, 1074.87 357.49, 1073.88 356.56 C 1072.89 355.62, 1071.76 354.92, 1069.73 355.41 C 1067.71 355.89, 1066.36 356.71, 1063.76 358.98 C 1061.16 361.25, 1059.73 363.16, 1056.74 366.75 C 1053.75 370.35, 1051.88 372.62, 1048.80 376.95 C 1045.73 381.27, 1043.89 383.90, 1041.36 388.38 C 1038.83 392.85, 1037.51 395.20, 1036.14 399.33 C 1034.78 403.45, 1034.18 405.58, 1034.52 409.01 C 1034.86 412.45, 1035.74 414.24, 1037.84 416.49 C 1039.93 418.74, 1041.67 419.69, 1045.00 420.28 C 1048.32 420.87, 1050.47 420.52, 1054.46 419.45 C 1058.45 418.37, 1060.76 417.32, 1064.95 414.91 C 1069.14 412.51, 1071.38 410.82, 1075.41 407.44 C 1079.45 404.06, 1081.73 401.91, 1085.15 398.03 C 1088.56 394.14, 1090.25 391.93, 1092.48 388.01 C 1094.71 384.09, 1095.55 382.07, 1096.31 378.43 C 1097.08 374.80, 1097.07 372.84, 1096.31 369.83 C 1095.55 366.82, 1094.37 365.35, 1092.52 363.41 C 1090.66 361.46, 1089.14 360.71, 1087.04 360.10 C 1084.95 359.49, 1083.52 359.61, 1082.02 360.33 C 1080.53 361.05, 1079.67 362.13, 1079.57 363.71 C 1079.47 365.29, 1079.79 366.79, 1081.52 368.23 C 1083.26 369.67, 1084.93 370.39, 1088.26 370.92 C 1091.60 371.45, 1093.69 371.16, 1098.20 370.88 C 1102.71 370.59, 1105.40 370.33, 1110.83 369.50 C 1116.25 368.66, 1119.45 367.98, 1125.33 366.70 C 1131.21 365.42, 1134.47 364.51, 1140.24 363.09 C 1146.01 361.67, 1149.16 360.78, 1154.19 359.59 C 1159.21 358.41, 1162.07 357.92, 1165.37 357.16 C 1168.67 356.40, 1169.86 355.81, 1170.69 355.77 C 1171.52 355.74, 1170.81 355.53, 1169.53 356.99 C 1168.25 358.45, 1166.98 359.97, 1164.30 363.07 C 1161.62 366.17, 1159.54 368.52, 1156.13 372.48 C 1152.72 376.43, 1150.42 378.87, 1147.25 382.86 C 1144.07 386.85, 1142.29 388.89, 1140.26 392.42 C 1138.24 395.96, 1137.31 397.67, 1137.13 400.53 C 1136.96 403.39, 1137.51 404.97, 1139.41 406.71 C 1141.31 408.45, 1143.06 409.20, 1146.64 409.22 C 1150.22 409.23, 1152.46 408.36, 1157.30 406.78 C 1162.13 405.20, 1165.04 403.97, 1170.83 401.32 C 1176.63 398.66, 1180.04 396.87, 1186.27 393.50 C 1192.50 390.13, 1196.02 387.95, 1201.99 384.49 C 1207.97 381.03, 1211.39 378.95, 1216.14 376.19 C 1220.89 373.43, 1223.42 372.28, 1225.74 370.68 C 1228.05 369.09, 1228.01 367.93, 1227.73 368.23 C 1227.45 368.52, 1226.41 369.19, 1224.34 372.15 C 1222.28 375.10, 1220.89 377.74, 1217.42 383.00 C 1213.95 388.26, 1211.53 391.69, 1207.00 398.44 C 1202.47 405.19, 1199.75 409.15, 1194.77 416.75 C 1189.78 424.34, 1186.98 428.55, 1182.06 436.41 C 1177.14 444.28, 1174.60 448.44, 1170.17 456.08 C 1165.74 463.72, 1163.71 467.64, 1159.90 474.59 C 1156.10 481.54, 1154.39 485.00, 1151.14 490.83 C 1147.89 496.67, 1146.40 499.45, 1143.66 503.77 C 1140.92 508.09, 1139.52 509.81, 1137.43 512.45 C 1135.34 515.08, 1134.41 515.90, 1133.20 516.95 C 1132.00 518.00, 1131.78 518.15, 1131.40 517.70 C 1131.03 517.25, 1131.32 516.65, 1131.33 514.70 C 1131.33 512.75, 1131.09 511.27, 1131.42 507.94 C 1131.74 504.61, 1131.68 502.42, 1132.95 498.04 C 1134.21 493.65, 1135.09 491.04, 1137.74 486.01 C 1140.39 480.98, 1142.08 478.18, 1146.20 472.89 C 1150.32 467.61, 1152.84 464.82, 1158.34 459.58 C 1163.84 454.34, 1167.15 451.64, 1173.70 446.68 C 1180.24 441.73, 1183.87 439.24, 1191.06 434.80 C 1198.25 430.36, 1202.26 428.25, 1209.62 424.47 C 1216.99 420.68, 1220.90 418.96, 1227.88 415.88 C 1234.87 412.79, 1238.31 411.46, 1244.56 409.06 C 1250.81 406.66, 1253.89 405.69, 1259.12 403.87 C 1264.35 402.05, 1266.90 401.21, 1270.70 399.96 C 1274.49 398.71, 1275.91 398.57, 1278.09 397.61 C 1280.26 396.65, 1280.72 395.97, 1281.59 395.15 C 1282.46 394.33, 1282.38 393.98, 1282.42 393.51 C 1282.47 393.03, 1282.22 392.88, 1281.82 392.78 C 1281.42 392.67, 1281.48 392.78, 1280.44 392.98 C 1279.39 393.17, 1278.78 393.02, 1276.59 393.76 C 1274.40 394.50, 1273.17 395.16, 1269.48 396.67 C 1265.80 398.18, 1263.32 399.26, 1258.16 401.31 C 1253.01 403.35, 1249.94 404.38, 1243.71 406.91 C 1237.48 409.44, 1234.03 410.81, 1227.03 413.96 C 1220.03 417.12, 1216.11 418.86, 1208.71 422.69 C 1201.30 426.52, 1197.27 428.64, 1190.01 433.10 C 1182.76 437.57, 1179.09 440.05, 1172.44 445.02 C 1165.79 449.98, 1162.43 452.67, 1156.78 457.93 C 1151.13 463.18, 1148.53 465.96, 1144.18 471.28 C 1139.83 476.59, 1138.03 479.41, 1135.04 484.51 C 1132.05 489.61, 1130.97 492.22, 1129.22 496.78 C 1127.47 501.33, 1126.85 503.54, 1126.27 507.29 C 1125.69 511.03, 1125.59 512.97, 1126.33 515.52 C 1127.06 518.07, 1128.20 519.16, 1129.95 520.04 C 1131.71 520.91, 1133.01 520.95, 1135.09 519.88 C 1137.18 518.82, 1138.17 517.63, 1140.36 514.70 C 1142.55 511.76, 1143.50 509.75, 1146.06 505.20 C 1148.61 500.64, 1150.02 497.85, 1153.15 491.92 C 1156.27 485.99, 1157.93 482.52, 1161.66 475.54 C 1165.39 468.56, 1167.39 464.64, 1171.79 457.02 C 1176.18 449.39, 1178.71 445.24, 1183.64 437.41 C 1188.57 429.58, 1191.37 425.38, 1196.45 417.86 C 1201.52 410.35, 1204.28 406.43, 1209.01 399.83 C 1213.73 393.22, 1216.33 389.96, 1220.06 384.83 C 1223.79 379.69, 1225.89 377.54, 1227.66 374.15 C 1229.44 370.77, 1229.65 369.24, 1228.92 367.90 C 1228.19 366.55, 1226.89 366.29, 1224.02 367.43 C 1221.15 368.57, 1219.23 370.63, 1214.56 373.59 C 1209.89 376.55, 1206.58 378.72, 1200.67 382.24 C 1194.76 385.75, 1191.24 387.91, 1185.03 391.17 C 1178.82 394.43, 1175.38 396.14, 1169.61 398.53 C 1163.85 400.92, 1160.84 401.92, 1156.22 403.13 C 1151.60 404.35, 1149.45 404.42, 1146.52 404.61 C 1143.59 404.80, 1142.66 404.79, 1141.57 404.07 C 1140.47 403.36, 1140.61 402.95, 1141.04 401.02 C 1141.48 399.09, 1141.91 397.58, 1143.74 394.42 C 1145.56 391.25, 1147.07 389.04, 1150.16 385.19 C 1153.25 381.35, 1155.66 379.03, 1159.19 375.20 C 1162.71 371.37, 1165.06 369.34, 1167.81 366.05 C 1170.55 362.76, 1172.16 361.20, 1172.91 358.74 C 1173.67 356.27, 1173.23 354.82, 1171.57 353.72 C 1169.91 352.62, 1168.27 352.69, 1164.63 353.24 C 1160.99 353.78, 1158.40 355.05, 1153.38 356.44 C 1148.36 357.84, 1145.26 358.77, 1139.53 360.22 C 1133.79 361.68, 1130.54 362.55, 1124.71 363.72 C 1118.88 364.88, 1115.69 365.51, 1110.38 366.06 C 1105.07 366.61, 1102.38 366.70, 1098.17 366.48 C 1093.96 366.26, 1092.16 365.54, 1089.34 364.96 C 1086.52 364.38, 1085.52 363.90, 1084.08 363.59 C 1082.65 363.28, 1082.42 363.32, 1082.16 363.42 C 1081.90 363.52, 1082.12 363.80, 1082.76 364.10 C 1083.41 364.40, 1084.11 364.38, 1085.36 364.93 C 1086.61 365.48, 1087.73 365.64, 1089.01 366.86 C 1090.29 368.09, 1091.11 368.91, 1091.76 371.07 C 1092.40 373.23, 1092.75 374.63, 1092.25 377.67 C 1091.76 380.70, 1091.22 382.62, 1089.28 386.24 C 1087.34 389.85, 1085.77 392.06, 1082.55 395.76 C 1079.33 399.45, 1077.07 401.57, 1073.18 404.72 C 1069.28 407.87, 1067.04 409.43, 1063.08 411.51 C 1059.12 413.59, 1056.85 414.34, 1053.38 415.14 C 1049.91 415.95, 1048.24 415.85, 1045.74 415.53 C 1043.24 415.21, 1042.30 414.93, 1040.90 413.55 C 1039.50 412.16, 1038.97 411.23, 1038.73 408.61 C 1038.50 406.00, 1038.58 404.17, 1039.72 400.47 C 1040.86 396.78, 1042.02 394.38, 1044.43 390.12 C 1046.85 385.86, 1048.67 383.22, 1051.79 379.15 C 1054.91 375.09, 1056.86 372.91, 1060.04 369.78 C 1063.21 366.65, 1065.26 365.52, 1067.65 363.52 C 1070.04 361.51, 1070.98 360.84, 1071.99 359.74 C 1073.01 358.63, 1072.85 358.21, 1072.74 357.98 C 1072.63 357.75, 1072.24 357.87, 1071.43 358.58 C 1070.61 359.30, 1070.00 359.81, 1068.68 361.56 C 1067.36 363.30, 1066.66 364.68, 1064.84 367.31 C 1063.03 369.93, 1061.98 371.58, 1059.59 374.70 C 1057.19 377.81, 1055.76 379.56, 1052.87 382.88 C 1049.99 386.20, 1048.40 388.05, 1045.16 391.30 C 1041.91 394.54, 1040.12 396.28, 1036.64 399.12 C 1033.16 401.95, 1031.33 403.33, 1027.75 405.47 C 1024.18 407.61, 1022.41 408.51, 1018.79 409.81 C 1015.17 411.10, 1013.33 411.53, 1009.64 411.94 C 1005.95 412.36, 1004.11 412.34, 1000.34 411.88 C 996.58 411.41, 994.66 410.91, 990.82 409.61 C 986.98 408.31, 985.03 407.41, 981.13 405.37 C 977.22 403.34, 975.22 401.99, 971.30 399.44 C 967.39 396.90, 965.24 395.40, 961.55 392.65 C 957.85 389.89, 956.03 388.43, 952.84 385.69 C 949.65 382.95, 948.18 381.30, 945.61 378.94 C 943.05 376.58, 941.83 375.39, 940.03 373.88 C 938.23 372.37, 937.17 372.30, 936.61 371.41 C 936.04 370.53, 936.05 370.58, 937.20 369.45 C 938.35 368.32, 939.31 367.73, 942.37 365.75 C 945.42 363.77, 947.67 362.51, 952.48 359.54 C 957.30 356.58, 960.46 354.73, 966.44 350.93 C 972.43 347.13, 976.08 344.92, 982.40 340.52 C 988.72 336.13, 992.24 333.73, 998.03 328.96 C 1003.82 324.19, 1006.76 321.47, 1011.35 316.68 C 1015.94 311.89, 1018.06 309.55, 1020.98 305.00 C 1023.89 300.44, 1025.05 298.10, 1025.92 293.90 C 1026.80 289.69, 1026.69 287.32, 1025.36 283.95 C 1024.02 280.59, 1022.46 278.96, 1019.27 277.07 C 1016.07 275.17, 1013.89 274.66, 1009.37 274.50 C 1004.84 274.33, 1002.17 274.64, 996.64 276.24 C 991.11 277.84, 987.97 279.09, 981.71 282.50 C 975.45 285.91, 971.94 288.17, 965.34 293.29 C 958.74 298.42, 955.21 301.56, 948.72 308.12 C 942.24 314.68, 938.80 318.50, 932.91 326.08 C 927.01 333.66, 924.08 337.97, 919.26 346.02 C 914.44 354.07, 912.34 358.50, 908.79 366.34 C 905.23 374.18, 903.74 378.26, 901.50 385.22 C 899.26 392.19, 898.47 395.68, 897.58 401.17 C 896.69 406.66, 896.28 409.32, 897.04 412.68 C 897.80 416.03, 899.14 417.32, 901.39 417.94 C 903.65 418.55, 905.31 418.04, 908.32 415.74 C 911.32 413.45, 912.86 411.18, 916.43 406.48 C 920.00 401.77, 922.08 398.54, 926.16 392.23 C 930.25 385.92, 932.63 382.09, 936.88 374.92 C 941.13 367.76, 943.51 363.65, 947.43 356.39 C 951.35 349.14, 953.23 345.05, 956.48 338.66 C 959.73 332.26, 961.34 329.20, 963.68 324.43 C 966.03 319.67, 967.14 317.84, 968.19 314.84 C 969.25 311.84, 969.21 310.67, 968.95 309.45 C 968.70 308.22, 967.88 307.97, 966.92 308.72" style="stroke:#ffffff; fill:#ffffff;"/></svg>